{
    "asset" : {
        "generator" : "Khronos glTF Blender I/O v3.3.27",
        "version" : "2.0"
    },
    "scene" : 0,
    "scenes" : [
        {
            "name" : "Scene",
            "nodes" : [
                19,
                20
            ]
        }
    ],
    "nodes" : [
        {
            "name" : "Hand.Left",
            "rotation" : [
                -0.006391563452780247,
                0.007367583457380533,
                -0.07295277714729309,
                0.9972878098487854
            ],
            "scale" : [
                1,
                0.9999999403953552,
                0.9999997615814209
            ],
            "translation" : [
                1.6763806343078613e-08,
                0.27878162264823914,
                -5.21540641784668e-08
            ]
        },
        {
            "children" : [
                0
            ],
            "name" : "Forearm.Left",
            "rotation" : [
                0.13505668938159943,
                0.08251100033521652,
                -0.016807211562991142,
                0.9872533679008484
            ],
            "scale" : [
                1,
                1,
                0.9999999403953552
            ],
            "translation" : [
                -2.421438694000244e-08,
                0.32044950127601624,
                -7.450580596923828e-09
            ]
        },
        {
            "children" : [
                1
            ],
            "name" : "Upperarm.Left",
            "rotation" : [
                -0.4562809467315674,
                0.6327710747718811,
                -0.14464369416236877,
                0.6086763143539429
            ],
            "translation" : [
                7.450580596923828e-09,
                0.2090444713830948,
                -9.080395102500916e-08
            ]
        },
        {
            "children" : [
                2
            ],
            "name" : "Shoulder.Left",
            "rotation" : [
                -0.4724470376968384,
                0.3254571557044983,
                0.67451411485672,
                0.46465277671813965
            ],
            "translation" : [
                6.398909180305168e-12,
                0.40198028087615967,
                -2.644924834704909e-10
            ]
        },
        {
            "name" : "Head",
            "rotation" : [
                -8.863300422490283e-07,
                7.591400930095915e-08,
                -0.00018981406174134463,
                1
            ],
            "translation" : [
                6.398909180305168e-12,
                0.40198028087615967,
                -2.644924834704909e-10
            ]
        },
        {
            "name" : "Hand.Right",
            "rotation" : [
                -0.007267458830028772,
                -0.01934163086116314,
                0.0728706568479538,
                0.9971274733543396
            ],
            "scale" : [
                1,
                0.9999998807907104,
                0.9999998807907104
            ],
            "translation" : [
                -6.798654794692993e-08,
                0.2787815034389496,
                -2.60770320892334e-08
            ]
        },
        {
            "children" : [
                5
            ],
            "name" : "Forearm.Right",
            "rotation" : [
                0.13503457605838776,
                -0.060081541538238525,
                0.016985377296805382,
                0.9888718724250793
            ],
            "scale" : [
                1,
                0.9999999403953552,
                1.0000001192092896
            ],
            "translation" : [
                -5.9138983488082886e-08,
                0.320449560880661,
                -3.725290298461914e-09
            ]
        },
        {
            "children" : [
                6
            ],
            "name" : "Upperarm.Right",
            "rotation" : [
                0.3062780797481537,
                0.7948054671287537,
                0.3678421378135681,
                0.37305524945259094
            ],
            "scale" : [
                1,
                1.000000238418579,
                1
            ],
            "translation" : [
                -5.774199962615967e-08,
                0.20904439687728882,
                3.259629011154175e-08
            ]
        },
        {
            "children" : [
                7
            ],
            "name" : "Shoulder.Right",
            "rotation" : [
                0.45357829332351685,
                0.31220459938049316,
                -0.6876024603843689,
                0.47328412532806396
            ],
            "scale" : [
                0.9999999403953552,
                1,
                1
            ],
            "translation" : [
                6.290606924252984e-12,
                0.40198028087615967,
                -2.644924834704909e-10
            ]
        },
        {
            "children" : [
                3,
                4,
                8
            ],
            "name" : "Back",
            "rotation" : [
                0.00047449980047531426,
                0.9999998211860657,
                4.927258601128415e-07,
                0.00033684176742099226
            ],
            "scale" : [
                0.9999998807907104,
                1.0000001192092896,
                0.9999998807907104
            ],
            "translation" : [
                -1.7280399333685637e-11,
                0.2680198848247528,
                3.3072922178689623e-10
            ]
        },
        {
            "name" : "Foot.Left",
            "rotation" : [
                0.6893819570541382,
                -0.04644807055592537,
                0.011417906731367111,
                0.7228173017501831
            ],
            "scale" : [
                0.9999998807907104,
                0.9999998807907104,
                0.9999998807907104
            ],
            "translation" : [
                -1.3969838619232178e-09,
                0.5272332429885864,
                -4.700268618762493e-09
            ]
        },
        {
            "children" : [
                10
            ],
            "name" : "Shin.Left",
            "rotation" : [
                -0.11853630840778351,
                0.09826261550188065,
                -0.0032241910230368376,
                0.9880704879760742
            ],
            "scale" : [
                1,
                1.0000001192092896,
                1
            ],
            "translation" : [
                -9.313225746154785e-10,
                0.38005200028419495,
                -8.381903171539307e-09
            ]
        },
        {
            "children" : [
                11
            ],
            "name" : "Thigh.Left",
            "rotation" : [
                0.0979958102107048,
                -0.28940635919570923,
                -0.16220976412296295,
                0.9382584691047668
            ],
            "translation" : [
                -4.6566128730773926e-08,
                0.28667041659355164,
                -1.30385160446167e-08
            ]
        },
        {
            "children" : [
                12
            ],
            "name" : "Hip.Left",
            "rotation" : [
                0.22494494915008545,
                0.04820256307721138,
                -0.951450526714325,
                0.20449522137641907
            ],
            "scale" : [
                0.9999998807907104,
                0.9999999403953552,
                0.9999998807907104
            ],
            "translation" : [
                -1.7280399333685637e-11,
                0.2680198848247528,
                3.3072922178689623e-10
            ]
        },
        {
            "name" : "Foot.Right",
            "rotation" : [
                0.6894457340240479,
                0.05060683190822601,
                -0.008109633810818195,
                0.7225219011306763
            ],
            "scale" : [
                1,
                1,
                0.9999999403953552
            ],
            "translation" : [
                -2.3515895009040833e-08,
                0.5272327661514282,
                -8.64383764564991e-09
            ]
        },
        {
            "children" : [
                14
            ],
            "name" : "Shin.Right",
            "rotation" : [
                -0.11808682233095169,
                -0.036738574504852295,
                0.010779633186757565,
                0.9922648668289185
            ],
            "scale" : [
                0.9999998807907104,
                0.9999999403953552,
                0.9999999403953552
            ],
            "translation" : [
                -3.725290298461914e-09,
                0.3800520598888397,
                2.561137080192566e-09
            ]
        },
        {
            "children" : [
                15
            ],
            "name" : "Thigh.Right",
            "rotation" : [
                0.11265361309051514,
                0.25842833518981934,
                0.15239614248275757,
                0.9472588896751404
            ],
            "scale" : [
                0.9999999403953552,
                0.9999998807907104,
                1
            ],
            "translation" : [
                2.7008354663848877e-08,
                0.2866705060005188,
                -1.6763806343078613e-08
            ]
        },
        {
            "children" : [
                16
            ],
            "name" : "Hip.Right",
            "rotation" : [
                0.25283828377723694,
                -0.054622046649456024,
                0.9442969560623169,
                0.2034519910812378
            ],
            "scale" : [
                0.9999999403953552,
                0.9999999403953552,
                0.9999999403953552
            ],
            "translation" : [
                0.0003052058455068618,
                0.2680197060108185,
                2.0585079596457945e-07
            ]
        },
        {
            "children" : [
                9,
                13,
                17
            ],
            "name" : "Hip",
            "rotation" : [
                -2.528094853460061e-07,
                0.00033669089316390455,
                0.0002846861316356808,
                0.9999999403953552
            ],
            "scale" : [
                1.0000001192092896,
                1,
                1
            ],
            "translation" : [
                0,
                -0.06000000238418579,
                -0.07000000029802322
            ]
        },
        {
            "children" : [
                18
            ],
            "name" : "ArmLow",
            "translation" : [
                0,
                1.0082759857177734,
                0.0903756320476532
            ]
        },
        {
            "mesh" : 0,
            "name" : "HumanLow",
            "skin" : 0
        }
    ],
    "materials" : [
        {
            "doubleSided" : true,
            "name" : "Material",
            "pbrMetallicRoughness" : {
                "baseColorFactor" : [
                    0.800000011920929,
                    0.800000011920929,
                    0.800000011920929,
                    1
                ],
                "metallicFactor" : 0,
                "roughnessFactor" : 0.5
            }
        }
    ],
    "meshes" : [
        {
            "name" : "Cube",
            "primitives" : [
                {
                    "attributes" : {
                        "POSITION" : 0,
                        "NORMAL" : 1,
                        "TEXCOORD_0" : 2,
                        "JOINTS_0" : 3,
                        "WEIGHTS_0" : 4
                    },
                    "indices" : 5,
                    "material" : 0
                }
            ]
        }
    ],
    "skins" : [
        {
            "inverseBindMatrices" : 6,
            "joints" : [
                18,
                9,
                3,
                2,
                1,
                0,
                4,
                8,
                7,
                6,
                5,
                13,
                12,
                11,
                10,
                17,
                16,
                15,
                14
            ],
            "name" : "ArmLow"
        }
    ],
    "accessors" : [
        {
            "bufferView" : 0,
            "componentType" : 5126,
            "count" : 303,
            "max" : [
                0.40322551131248474,
                1.9650678634643555,
                0.24917149543762207
            ],
            "min" : [
                -0.4032253623008728,
                -0.0010250022169202566,
                -0.14267945289611816
            ],
            "type" : "VEC3"
        },
        {
            "bufferView" : 1,
            "componentType" : 5126,
            "count" : 303,
            "type" : "VEC3"
        },
        {
            "bufferView" : 2,
            "componentType" : 5126,
            "count" : 303,
            "type" : "VEC2"
        },
        {
            "bufferView" : 3,
            "componentType" : 5121,
            "count" : 303,
            "type" : "VEC4"
        },
        {
            "bufferView" : 4,
            "componentType" : 5126,
            "count" : 303,
            "type" : "VEC4"
        },
        {
            "bufferView" : 5,
            "componentType" : 5123,
            "count" : 738,
            "type" : "SCALAR"
        },
        {
            "bufferView" : 6,
            "componentType" : 5126,
            "count" : 19,
            "type" : "MAT4"
        }
    ],
    "bufferViews" : [
        {
            "buffer" : 0,
            "byteLength" : 3636,
            "byteOffset" : 0,
            "target" : 34962
        },
        {
            "buffer" : 0,
            "byteLength" : 3636,
            "byteOffset" : 3636,
            "target" : 34962
        },
        {
            "buffer" : 0,
            "byteLength" : 2424,
            "byteOffset" : 7272,
            "target" : 34962
        },
        {
            "buffer" : 0,
            "byteLength" : 1212,
            "byteOffset" : 9696,
            "target" : 34962
        },
        {
            "buffer" : 0,
            "byteLength" : 4848,
            "byteOffset" : 10908,
            "target" : 34962
        },
        {
            "buffer" : 0,
            "byteLength" : 1476,
            "byteOffset" : 15756,
            "target" : 34963
        },
        {
            "buffer" : 0,
            "byteLength" : 1216,
            "byteOffset" : 17232
        }
    ],
    "buffers" : [
        {
            "byteLength" : 18448,
            "uri" : "data:application/octet-stream;base64,"
        }
    ]
}
