{
  "accessors": [
    {
      "name": "Mesh1 Plate_River_Corner Model_1_0_positions",
      "componentType": 5126,
      "count": 56,
      "min": [
        -6.84371992670102e-13,
        0,
        -3
      ],
      "max": [
        3,
        0.30000001192092896,
        0
      ],
      "type": "VEC3",
      "bufferView": 0,
      "byteOffset": 0
    },
    {
      "name": "Mesh1 Plate_River_Corner Model_1_0_normals",
      "componentType": 5126,
      "count": 56,
      "min": [
        -1,
        -1,
        -1
      ],
      "max": [
        1,
        2.3927392012539627e-17,
        1
      ],
      "type": "VEC3",
      "bufferView": 1,
      "byteOffset": 0
    },
    {
      "name": "Mesh1 Plate_River_Corner Model_1_0_texcoords",
      "componentType": 5126,
      "count": 56,
      "min": [
        -1.5212700366973877,
        -0.3636400103569031
      ],
      "max": [
        1.3969999551773071,
        1
      ],
      "type": "VEC2",
      "bufferView": 2,
      "byteOffset": 0
    },
    {
      "name": "Mesh1 Plate_River_Corner Model_1_0_indices",
      "componentType": 5123,
      "count": 96,
      "min": [
        0
      ],
      "max": [
        55
      ],
      "type": "SCALAR",
      "bufferView": 3,
      "byteOffset": 0
    },
    {
      "name": "Mesh1 Plate_River_Corner Model_1_1_positions",
      "componentType": 5126,
      "count": 13,
      "min": [
        -6.84371992670102e-13,
        0.30000001192092896,
        -3
      ],
      "max": [
        3,
        0.30000001192092896,
        0
      ],
      "type": "VEC3",
      "bufferView": 0,
      "byteOffset": 672
    },
    {
      "name": "Mesh1 Plate_River_Corner Model_1_1_normals",
      "componentType": 5126,
      "count": 13,
      "min": [
        2.0843799587333317e-18,
        1,
        1.1109699852619042e-17
      ],
      "max": [
        6.056730265165556e-17,
        1,
        6.405869966834388e-17
      ],
      "type": "VEC3",
      "bufferView": 1,
      "byteOffset": 672
    },
    {
      "name": "Mesh1 Plate_River_Corner Model_1_1_texcoords",
      "componentType": 5126,
      "count": 13,
      "min": [
        -3.1108600938301034e-13,
        -0.3636400103569031
      ],
      "max": [
        1.3636399507522583,
        1
      ],
      "type": "VEC2",
      "bufferView": 2,
      "byteOffset": 448
    },
    {
      "name": "Mesh1 Plate_River_Corner Model_1_1_indices",
      "componentType": 5123,
      "count": 27,
      "min": [
        0
      ],
      "max": [
        12
      ],
      "type": "SCALAR",
      "bufferView": 3,
      "byteOffset": 192
    },
    {
      "name": "Mesh1 Plate_River_Corner Model_1_2_positions",
      "componentType": 5126,
      "count": 9,
      "min": [
        -6.84371992670102e-13,
        0.15000000596046448,
        -3
      ],
      "max": [
        2.3677101135253906,
        0.15000000596046448,
        -0.6993070244789124
      ],
      "type": "VEC3",
      "bufferView": 0,
      "byteOffset": 828
    },
    {
      "name": "Mesh1 Plate_River_Corner Model_1_2_normals",
      "componentType": 5126,
      "count": 9,
      "min": [
        -4.338780026777854e-17,
        1,
        -2.4091800776729442e-17
      ],
      "max": [
        -4.338780026777854e-17,
        1,
        -2.4091800776729442e-17
      ],
      "type": "VEC3",
      "bufferView": 1,
      "byteOffset": 828
    },
    {
      "name": "Mesh1 Plate_River_Corner Model_1_2_texcoords",
      "componentType": 5126,
      "count": 9,
      "min": [
        -3.110750047309596e-13,
        -0.3636400103569031
      ],
      "max": [
        1.0762300491333008,
        0.6821330189704895
      ],
      "type": "VEC2",
      "bufferView": 2,
      "byteOffset": 552
    },
    {
      "name": "Mesh1 Plate_River_Corner Model_1_2_indices",
      "componentType": 5123,
      "count": 21,
      "min": [
        0
      ],
      "max": [
        8
      ],
      "type": "SCALAR",
      "bufferView": 3,
      "byteOffset": 248
    }
  ],
  "asset": {
    "generator": "obj2gltf",
    "version": "2.0"
  },
  "buffers": [
    {
      "name": "Plate_River_Corner_01",
      "byteLength": 2788,
      "uri": "data:application/octet-stream;base64,"
    }
  ],
  "bufferViews": [
    {
      "name": "bufferView_0",
      "buffer": 0,
      "byteLength": 936,
      "byteOffset": 0,
      "byteStride": 12,
      "target": 34962
    },
    {
      "name": "bufferView_1",
      "buffer": 0,
      "byteLength": 936,
      "byteOffset": 936,
      "byteStride": 12,
      "target": 34962
    },
    {
      "name": "bufferView_2",
      "buffer": 0,
      "byteLength": 624,
      "byteOffset": 1872,
      "byteStride": 8,
      "target": 34962
    },
    {
      "name": "bufferView_3",
      "buffer": 0,
      "byteLength": 292,
      "byteOffset": 2496,
      "target": 34963
    }
  ],
  "materials": [
    {
      "name": "Stone",
      "pbrMetallicRoughness": {
        "baseColorFactor": [
          0.72549,
          0.752941,
          0.788235,
          1
        ],
        "metallicFactor": 0,
        "roughnessFactor": 1
      },
      "emissiveFactor": [
        0,
        0,
        0
      ],
      "alphaMode": "OPAQUE",
      "doubleSided": false
    },
    {
      "name": "Leafs",
      "pbrMetallicRoughness": {
        "baseColorFactor": [
          0.270588,
          0.407843,
          0.4,
          1
        ],
        "metallicFactor": 0,
        "roughnessFactor": 1
      },
      "emissiveFactor": [
        0,
        0,
        0
      ],
      "alphaMode": "OPAQUE",
      "doubleSided": false
    },
    {
      "name": "Water",
      "pbrMetallicRoughness": {
        "baseColorFactor": [
          0.596078,
          0.898039,
          0.968627,
          1
        ],
        "metallicFactor": 0,
        "roughnessFactor": 1
      },
      "emissiveFactor": [
        0,
        0,
        0
      ],
      "alphaMode": "OPAQUE",
      "doubleSided": false
    }
  ],
  "meshes": [
    {
      "name": "Mesh1 Plate_River_Corner Model_1",
      "primitives": [
        {
          "attributes": {
            "POSITION": 0,
            "NORMAL": 1,
            "TEXCOORD_0": 2
          },
          "indices": 3,
          "material": 0,
          "mode": 4
        },
        {
          "attributes": {
            "POSITION": 4,
            "NORMAL": 5,
            "TEXCOORD_0": 6
          },
          "indices": 7,
          "material": 1,
          "mode": 4
        },
        {
          "attributes": {
            "POSITION": 8,
            "NORMAL": 9,
            "TEXCOORD_0": 10
          },
          "indices": 11,
          "material": 2,
          "mode": 4
        }
      ]
    }
  ],
  "nodes": [
    {
      "name": "Mesh1 Plate_River_Corner Model",
      "mesh": 0
    }
  ],
  "scene": 0,
  "scenes": [
    {
      "nodes": [
        0
      ]
    }
  ]
}
