{
  "accessors": [
    {
      "name": "Mesh1 Tent_Poles Model_1_0_positions",
      "componentType": 5126,
      "count": 103,
      "min": [
        0,
        0,
        -3
      ],
      "max": [
        3,
        2.855030059814453,
        0
      ],
      "type": "VEC3",
      "bufferView": 0,
      "byteOffset": 0
    },
    {
      "name": "Mesh1 Tent_Poles Model_1_0_normals",
      "componentType": 5126,
      "count": 103,
      "min": [
        -0.936618447303772,
        -1,
        -1
      ],
      "max": [
        0.936618447303772,
        0.46510401368141174,
        1
      ],
      "type": "VEC3",
      "bufferView": 1,
      "byteOffset": 0
    },
    {
      "name": "Mesh1 Tent_Poles Model_1_0_texcoords",
      "componentType": 5126,
      "count": 103,
      "min": [
        -1.3636399507522583,
        -0.46595001220703125
      ],
      "max": [
        1.3636399507522583,
        1.634232997894287
      ],
      "type": "VEC2",
      "bufferView": 2,
      "byteOffset": 0
    },
    {
      "name": "Mesh1 Tent_Poles Model_1_0_indices",
      "componentType": 5123,
      "count": 201,
      "min": [
        0
      ],
      "max": [
        102
      ],
      "type": "SCALAR",
      "bufferView": 3,
      "byteOffset": 0
    },
    {
      "name": "Mesh1 Tent_Poles Model_1_1_positions",
      "componentType": 5126,
      "count": 92,
      "min": [
        1.350000023841858,
        6.767920303503948e-17,
        -3
      ],
      "max": [
        1.649999976158142,
        2.855030059814453,
        0
      ],
      "type": "VEC3",
      "bufferView": 0,
      "byteOffset": 1236
    },
    {
      "name": "Mesh1 Tent_Poles Model_1_1_normals",
      "componentType": 5126,
      "count": 92,
      "min": [
        -1,
        -1,
        -1
      ],
      "max": [
        1,
        1,
        1
      ],
      "type": "VEC3",
      "bufferView": 1,
      "byteOffset": 1236
    },
    {
      "name": "Mesh1 Tent_Poles Model_1_1_texcoords",
      "componentType": 5126,
      "count": 92,
      "min": [
        -1.3636399507522583,
        -0.3636400103569031
      ],
      "max": [
        1.3636399507522583,
        1
      ],
      "type": "VEC2",
      "bufferView": 2,
      "byteOffset": 824
    },
    {
      "name": "Mesh1 Tent_Poles Model_1_1_indices",
      "componentType": 5123,
      "count": 153,
      "min": [
        0
      ],
      "max": [
        91
      ],
      "type": "SCALAR",
      "bufferView": 3,
      "byteOffset": 404
    },
    {
      "name": "Mesh1 Tent_Poles Model_1_2_positions",
      "componentType": 5126,
      "count": 8,
      "min": [
        0.6789479851722717,
        1.2922799587249756,
        -2.25219988822937
      ],
      "max": [
        1.2227599620819092,
        2.3273398876190186,
        -0.7046210169792175
      ],
      "type": "VEC3",
      "bufferView": 0,
      "byteOffset": 2340
    },
    {
      "name": "Mesh1 Tent_Poles Model_1_2_normals",
      "componentType": 5126,
      "count": 8,
      "min": [
        -0.8852560520172119,
        0.46510401368141174,
        -3.4694502606760644e-18
      ],
      "max": [
        -0.8852560520172119,
        0.46510401368141174,
        1.517879997455052e-16
      ],
      "type": "VEC3",
      "bufferView": 1,
      "byteOffset": 2340
    },
    {
      "name": "Mesh1 Tent_Poles Model_1_2_texcoords",
      "componentType": 5126,
      "count": 8,
      "min": [
        -1.0237300395965576,
        -0.19499999284744263
      ],
      "max": [
        -0.3202820122241974,
        0.3364650011062622
      ],
      "type": "VEC2",
      "bufferView": 2,
      "byteOffset": 1560
    },
    {
      "name": "Mesh1 Tent_Poles Model_1_2_indices",
      "componentType": 5123,
      "count": 12,
      "min": [
        0
      ],
      "max": [
        7
      ],
      "type": "SCALAR",
      "bufferView": 3,
      "byteOffset": 712
    }
  ],
  "asset": {
    "generator": "obj2gltf",
    "version": "2.0"
  },
  "buffers": [
    {
      "name": "Tent_Poles_01",
      "byteLength": 7232,
      "uri": "data:application/octet-stream;base64,"
    }
  ],
  "bufferViews": [
    {
      "name": "bufferView_0",
      "buffer": 0,
      "byteLength": 2436,
      "byteOffset": 0,
      "byteStride": 12,
      "target": 34962
    },
    {
      "name": "bufferView_1",
      "buffer": 0,
      "byteLength": 2436,
      "byteOffset": 2436,
      "byteStride": 12,
      "target": 34962
    },
    {
      "name": "bufferView_2",
      "buffer": 0,
      "byteLength": 1624,
      "byteOffset": 4872,
      "byteStride": 8,
      "target": 34962
    },
    {
      "name": "bufferView_3",
      "buffer": 0,
      "byteLength": 736,
      "byteOffset": 6496,
      "target": 34963
    }
  ],
  "materials": [
    {
      "name": "Green_Roof",
      "pbrMetallicRoughness": {
        "baseColorFactor": [
          0.309804,
          0.466667,
          0.458824,
          1
        ],
        "metallicFactor": 0,
        "roughnessFactor": 1
      },
      "emissiveFactor": [
        0,
        0,
        0
      ],
      "alphaMode": "OPAQUE",
      "doubleSided": false
    },
    {
      "name": "Wood",
      "pbrMetallicRoughness": {
        "baseColorFactor": [
          0.666667,
          0.545098,
          0.356863,
          1
        ],
        "metallicFactor": 0,
        "roughnessFactor": 1
      },
      "emissiveFactor": [
        0,
        0,
        0
      ],
      "alphaMode": "OPAQUE",
      "doubleSided": false
    },
    {
      "name": "Leafs",
      "pbrMetallicRoughness": {
        "baseColorFactor": [
          0.270588,
          0.407843,
          0.4,
          1
        ],
        "metallicFactor": 0,
        "roughnessFactor": 1
      },
      "emissiveFactor": [
        0,
        0,
        0
      ],
      "alphaMode": "OPAQUE",
      "doubleSided": false
    }
  ],
  "meshes": [
    {
      "name": "Mesh1 Tent_Poles Model_1",
      "primitives": [
        {
          "attributes": {
            "POSITION": 0,
            "NORMAL": 1,
            "TEXCOORD_0": 2
          },
          "indices": 3,
          "material": 0,
          "mode": 4
        },
        {
          "attributes": {
            "POSITION": 4,
            "NORMAL": 5,
            "TEXCOORD_0": 6
          },
          "indices": 7,
          "material": 1,
          "mode": 4
        },
        {
          "attributes": {
            "POSITION": 8,
            "NORMAL": 9,
            "TEXCOORD_0": 10
          },
          "indices": 11,
          "material": 2,
          "mode": 4
        }
      ]
    }
  ],
  "nodes": [
    {
      "name": "Mesh1 Tent_Poles Model",
      "mesh": 0
    }
  ],
  "scene": 0,
  "scenes": [
    {
      "nodes": [
        0
      ]
    }
  ]
}
