{
  "accessors": [
    {
      "name": "Mesh1 Tree Model_1_0_positions",
      "componentType": 5126,
      "count": 76,
      "min": [
        -0.0969351977109909,
        0,
        -1.295699954032898
      ],
      "max": [
        1.1799999475479126,
        3.2167599201202393,
        0
      ],
      "type": "VEC3",
      "bufferView": 0,
      "byteOffset": 0
    },
    {
      "name": "Mesh1 Tree Model_1_0_normals",
      "componentType": 5126,
      "count": 76,
      "min": [
        -0.9925660490989685,
        -1,
        -0.9796541929244995
      ],
      "max": [
        0.9796541929244995,
        0.4384470283985138,
        0.9796541929244995
      ],
      "type": "VEC3",
      "bufferView": 1,
      "byteOffset": 0
    },
    {
      "name": "Mesh1 Tree Model_1_0_texcoords",
      "componentType": 5126,
      "count": 76,
      "min": [
        -0.5889559984207153,
        -0.4848800003528595
      ],
      "max": [
        0.5889559984207153,
        1.2582260370254517
      ],
      "type": "VEC2",
      "bufferView": 2,
      "byteOffset": 0
    },
    {
      "name": "Mesh1 Tree Model_1_0_indices",
      "componentType": 5123,
      "count": 138,
      "min": [
        0
      ],
      "max": [
        75
      ],
      "type": "SCALAR",
      "bufferView": 3,
      "byteOffset": 0
    },
    {
      "name": "Mesh1 Tree Model_1_1_positions",
      "componentType": 5126,
      "count": 20,
      "min": [
        0.34216201305389404,
        -0.4958679974079132,
        -0.8378379940986633
      ],
      "max": [
        0.8378379940986633,
        0,
        -0.34216201305389404
      ],
      "type": "VEC3",
      "bufferView": 0,
      "byteOffset": 912
    },
    {
      "name": "Mesh1 Tree Model_1_1_normals",
      "componentType": 5126,
      "count": 20,
      "min": [
        -0.9947236180305481,
        -1,
        -0.9947236180305481
      ],
      "max": [
        0.9947236180305481,
        0.10259096324443817,
        0.9947236180305481
      ],
      "type": "VEC3",
      "bufferView": 1,
      "byteOffset": 912
    },
    {
      "name": "Mesh1 Tree Model_1_1_texcoords",
      "componentType": 5126,
      "count": 20,
      "min": [
        -0.38083600997924805,
        0.619163990020752
      ],
      "max": [
        0.38083600997924805,
        1.2632750272750854
      ],
      "type": "VEC2",
      "bufferView": 2,
      "byteOffset": 608
    },
    {
      "name": "Mesh1 Tree Model_1_1_indices",
      "componentType": 5123,
      "count": 30,
      "min": [
        0
      ],
      "max": [
        19
      ],
      "type": "SCALAR",
      "bufferView": 3,
      "byteOffset": 276
    }
  ],
  "asset": {
    "generator": "obj2gltf",
    "version": "2.0"
  },
  "buffers": [
    {
      "name": "Tree_01",
      "byteLength": 3408,
      "uri": "data:application/octet-stream;base64,"
    }
  ],
  "bufferViews": [
    {
      "name": "bufferView_0",
      "buffer": 0,
      "byteLength": 1152,
      "byteOffset": 0,
      "byteStride": 12,
      "target": 34962
    },
    {
      "name": "bufferView_1",
      "buffer": 0,
      "byteLength": 1152,
      "byteOffset": 1152,
      "byteStride": 12,
      "target": 34962
    },
    {
      "name": "bufferView_2",
      "buffer": 0,
      "byteLength": 768,
      "byteOffset": 2304,
      "byteStride": 8,
      "target": 34962
    },
    {
      "name": "bufferView_3",
      "buffer": 0,
      "byteLength": 336,
      "byteOffset": 3072,
      "target": 34963
    }
  ],
  "materials": [
    {
      "name": "Leafs",
      "pbrMetallicRoughness": {
        "baseColorFactor": [
          0.270588,
          0.407843,
          0.4,
          1
        ],
        "metallicFactor": 0,
        "roughnessFactor": 1
      },
      "emissiveFactor": [
        0,
        0,
        0
      ],
      "alphaMode": "OPAQUE",
      "doubleSided": false
    },
    {
      "name": "Wood",
      "pbrMetallicRoughness": {
        "baseColorFactor": [
          0.666667,
          0.545098,
          0.356863,
          1
        ],
        "metallicFactor": 0,
        "roughnessFactor": 1
      },
      "emissiveFactor": [
        0,
        0,
        0
      ],
      "alphaMode": "OPAQUE",
      "doubleSided": false
    }
  ],
  "meshes": [
    {
      "name": "Mesh1 Tree Model_1",
      "primitives": [
        {
          "attributes": {
            "POSITION": 0,
            "NORMAL": 1,
            "TEXCOORD_0": 2
          },
          "indices": 3,
          "material": 0,
          "mode": 4
        },
        {
          "attributes": {
            "POSITION": 4,
            "NORMAL": 5,
            "TEXCOORD_0": 6
          },
          "indices": 7,
          "material": 1,
          "mode": 4
        }
      ]
    }
  ],
  "nodes": [
    {
      "name": "Mesh1 Tree Model",
      "mesh": 0
    }
  ],
  "scene": 0,
  "scenes": [
    {
      "nodes": [
        0
      ]
    }
  ]
}
